<svg width="73" height="15" viewBox="0 0 73 15" fill="none" xmlns="http://www.w3.org/2000/svg">
<path d="M2.73521 0.909243V14.0002H0.363764V0.909243H2.73521ZM7.51486 8.24731V14.0002H5.20094V4.18197H7.41259V5.85029H7.52765C7.7535 5.30058 8.11359 4.86379 8.6079 4.53993C9.10648 4.21606 9.72225 4.05413 10.4552 4.05413C11.1328 4.05413 11.723 4.19902 12.2258 4.48879C12.7329 4.77856 13.125 5.19831 13.4019 5.74802C13.6832 6.29774 13.8217 6.96464 13.8174 7.74873V14.0002H11.5035V8.10669C11.5035 7.45044 11.333 6.93694 10.9921 6.5662C10.6555 6.19546 10.1889 6.0101 9.59228 6.0101C9.18745 6.0101 8.82736 6.09958 8.51202 6.27856C8.20094 6.45328 7.95592 6.70683 7.77694 7.03922C7.60222 7.3716 7.51486 7.7743 7.51486 8.24731ZM21.1427 4.18197V5.97174H15.3387V4.18197H21.1427ZM16.7897 14.0002V3.25512C16.7897 2.59461 16.9261 2.0449 17.1988 1.60598C17.4758 1.16706 17.8465 0.838931 18.311 0.621601C18.7755 0.404271 19.2911 0.295606 19.8579 0.295606C20.2585 0.295606 20.6143 0.327567 20.9254 0.391488C21.2365 0.455408 21.4666 0.512936 21.6157 0.564073L21.1555 2.35385C21.0575 2.32402 20.9339 2.29419 20.7848 2.26436C20.6356 2.23027 20.4694 2.21322 20.2862 2.21322C19.8558 2.21322 19.5511 2.31762 19.3721 2.52643C19.1974 2.73098 19.11 3.02501 19.11 3.40853V14.0002H16.7897ZM26.8684 14.1919C25.9096 14.1919 25.0786 13.981 24.3755 13.5591C23.6724 13.1372 23.1269 12.547 22.7391 11.7885C22.3556 11.03 22.1638 10.1436 22.1638 9.12941C22.1638 8.11521 22.3556 7.22671 22.7391 6.46393C23.1269 5.70115 23.6724 5.10882 24.3755 4.68694C25.0786 4.26507 25.9096 4.05413 26.8684 4.05413C27.8272 4.05413 28.6582 4.26507 29.3613 4.68694C30.0644 5.10882 30.6077 5.70115 30.9912 6.46393C31.379 7.22671 31.5729 8.11521 31.5729 9.12941C31.5729 10.1436 31.379 11.03 30.9912 11.7885C30.6077 12.547 30.0644 13.1372 29.3613 13.5591C28.6582 13.981 27.8272 14.1919 26.8684 14.1919ZM26.8812 12.3382C27.4011 12.3382 27.8357 12.1955 28.1851 11.91C28.5346 11.6202 28.7945 11.2324 28.965 10.7466C29.1397 10.2608 29.227 9.71961 29.227 9.12302C29.227 8.52217 29.1397 7.97885 28.965 7.49305C28.7945 7.00299 28.5346 6.61308 28.1851 6.32331C27.8357 6.03353 27.4011 5.88865 26.8812 5.88865C26.3485 5.88865 25.9053 6.03353 25.5516 6.32331C25.2022 6.61308 24.9401 7.00299 24.7654 7.49305C24.5949 7.97885 24.5097 8.52217 24.5097 9.12302C24.5097 9.71961 24.5949 10.2608 24.7654 10.7466C24.9401 11.2324 25.2022 11.6202 25.5516 11.91C25.9053 12.1955 26.3485 12.3382 26.8812 12.3382ZM44.8444 5.32615H42.4538C42.3856 4.9341 42.2599 4.5868 42.0767 4.28424C41.8934 3.97742 41.6654 3.71748 41.3927 3.50441C41.12 3.29135 40.8089 3.13154 40.4595 3.02501C40.1143 2.91422 39.7414 2.85882 39.3409 2.85882C38.6292 2.85882 37.9985 3.03779 37.4488 3.39575C36.8991 3.74944 36.4687 4.26933 36.1576 4.95541C35.8465 5.63723 35.691 6.47032 35.691 7.4547C35.691 8.45612 35.8465 9.29987 36.1576 9.98595C36.473 10.6678 36.9034 11.1834 37.4488 11.5328C37.9985 11.878 38.6271 12.0506 39.3345 12.0506C39.7265 12.0506 40.093 11.9994 40.4339 11.8972C40.7791 11.7906 41.088 11.6351 41.3607 11.4306C41.6377 11.226 41.87 10.9746 42.0575 10.6763C42.2492 10.378 42.3813 10.0371 42.4538 9.65356L44.8444 9.66635C44.7549 10.2885 44.561 10.8723 44.2627 11.4178C43.9687 11.9632 43.583 12.4448 43.1058 12.8624C42.6285 13.2757 42.0703 13.5996 41.4311 13.834C40.7919 14.0641 40.0823 14.1791 39.3025 14.1791C38.1519 14.1791 37.125 13.9128 36.2215 13.3801C35.3181 12.8475 34.6065 12.0783 34.0866 11.0726C33.5667 10.0669 33.3068 8.86095 33.3068 7.4547C33.3068 6.04419 33.5688 4.83822 34.093 3.8368C34.6171 2.83112 35.3309 2.06194 36.2343 1.52927C37.1377 0.996601 38.1605 0.730266 39.3025 0.730266C40.0312 0.730266 40.7088 0.832538 41.3352 1.03708C41.9616 1.24163 42.5198 1.54206 43.0099 1.93836C43.5 2.33041 43.9026 2.81194 44.218 3.38297C44.5376 3.94973 44.7464 4.59745 44.8444 5.32615ZM47.0161 0.909243H49.9181L53.8045 10.395H53.9579L57.8442 0.909243H60.7462V14.0002H58.4707V5.00654H58.3492L54.7313 13.9618H53.031L49.4131 4.98737H49.2917V14.0002H47.0161V0.909243ZM70.443 4.50797C70.3833 3.94973 70.1319 3.51507 69.6887 3.20399C69.2498 2.89291 68.6788 2.73737 67.9756 2.73737C67.4813 2.73737 67.0573 2.81194 66.7036 2.96109C66.3499 3.11024 66.0793 3.31265 65.8918 3.56833C65.7043 3.82402 65.6084 4.11592 65.6042 4.44404C65.6042 4.71677 65.666 4.95328 65.7895 5.15356C65.9174 5.35385 66.09 5.5243 66.3073 5.66493C66.5246 5.80129 66.7654 5.91635 67.0296 6.0101C67.2938 6.10385 67.5601 6.18268 67.8286 6.2466L69.0559 6.55342C69.5502 6.66848 70.0253 6.82402 70.4813 7.02004C70.9415 7.21606 71.3528 7.46322 71.715 7.76152C72.0814 8.05981 72.3712 8.4199 72.5843 8.84177C72.7974 9.26365 72.9039 9.75796 72.9039 10.3247C72.9039 11.0918 72.7079 11.7672 72.3158 12.351C71.9238 12.9306 71.357 13.3844 70.6155 13.7125C69.8783 14.0364 68.9856 14.1983 67.9373 14.1983C66.9188 14.1983 66.0346 14.0406 65.2846 13.7253C64.5388 13.41 63.955 12.9497 63.5332 12.3446C63.1155 11.7395 62.8897 11.0023 62.8556 10.133H65.1887C65.2228 10.5889 65.3634 10.9682 65.6106 11.2707C65.8577 11.5733 66.1795 11.7992 66.5758 11.9483C66.9763 12.0975 67.4238 12.172 67.9181 12.172C68.4337 12.172 68.8854 12.0953 69.2732 11.9419C69.6653 11.7842 69.9721 11.5669 70.1937 11.2899C70.4153 11.0087 70.5282 10.6806 70.5324 10.3056C70.5282 9.96464 70.428 9.68339 70.232 9.4618C70.036 9.23595 69.7611 9.04845 69.4074 8.8993C69.058 8.74589 68.6489 8.60953 68.1802 8.49021L66.6908 8.10669C65.6127 7.8297 64.7604 7.40995 64.134 6.84745C63.5118 6.28069 63.2008 5.52856 63.2008 4.59106C63.2008 3.81975 63.4096 3.14433 63.8272 2.56478C64.2491 1.98524 64.8222 1.53566 65.5466 1.21606C66.2711 0.892197 67.0914 0.730266 68.0076 0.730266C68.9366 0.730266 69.7505 0.892197 70.4493 1.21606C71.1525 1.53566 71.7043 1.98098 72.1049 2.552C72.5055 3.11876 72.7121 3.77075 72.7249 4.50797H70.443Z" fill="white"/>
</svg>
