<svg width="75" height="34" viewBox="0 0 75 34" fill="none" xmlns="http://www.w3.org/2000/svg">
<path d="M2.69825 20.8991H0.178864V28.9245H2.69825V20.8991Z" fill="white"/>
<path d="M2.50264 17.4349C2.23417 17.1999 1.88467 17.0824 1.45413 17.0824C1.02359 17.0824 0.675448 17.1999 0.409703 17.4349C0.277032 17.547 0.171457 17.6868 0.100661 17.8441C0.0298658 18.0014 -0.00436943 18.1723 0.000445924 18.3442C-0.00204947 18.5163 0.0332166 18.6869 0.103841 18.8444C0.174466 19.0019 0.278789 19.1425 0.409703 19.2568C0.682541 19.5057 1.03068 19.6299 1.45413 19.6293C1.87757 19.6288 2.22708 19.5086 2.50264 19.2688C2.63409 19.1528 2.73822 19.0099 2.80777 18.8502C2.87732 18.6905 2.91062 18.5179 2.90535 18.3442C2.91063 18.1728 2.87726 18.0024 2.80763 17.8452C2.73801 17.688 2.63385 17.5479 2.50264 17.4349Z" fill="white"/>
<path d="M9.99208 20.7029C8.84616 20.7029 7.97307 21.1916 7.37283 22.169H7.34091V20.8992H4.81824V28.9246H7.33763V24.3474C7.33763 23.8404 7.47842 23.4225 7.75999 23.0937C7.88894 22.9358 8.05305 22.8091 8.23966 22.7234C8.42628 22.6378 8.63042 22.5954 8.83634 22.5996C9.73998 22.5996 10.1918 23.2213 10.1918 24.4649V28.9246H12.7014V24.0102C12.7014 21.8053 11.7983 20.7029 9.99208 20.7029Z" fill="white"/>
<path d="M16.2741 17.6932C15.6684 18.2522 15.3653 18.989 15.3648 19.9037V20.8992H13.9938V22.7251H15.3648V28.9214H17.876V22.7251H19.7405V20.8992H17.876V20.0446C17.876 19.183 18.28 18.7519 19.0882 18.7514C19.4082 18.7559 19.7245 18.8198 20.0205 18.9397V17.0084C19.6057 16.8941 19.1759 16.8412 18.7452 16.8515C17.7035 16.8536 16.8798 17.1342 16.2741 17.6932Z" fill="white"/>
<path d="M28.1442 21.8278C27.3731 21.0767 26.3091 20.7012 24.952 20.7012C23.5752 20.7012 22.4839 21.0767 21.6779 21.8278C20.872 22.5789 20.4682 23.6172 20.4665 24.9429C20.4665 26.2304 20.8556 27.2481 21.6337 27.9959C22.4119 28.7438 23.4814 29.1193 24.8423 29.1225C26.2239 29.1225 27.3123 28.736 28.1074 27.9629C28.9024 27.1899 29.2997 26.137 29.2991 24.8044C29.2997 23.57 28.9147 22.5778 28.1442 21.8278ZM24.9233 27.2194C23.6579 27.2194 23.0255 26.4487 23.026 24.9074C23.026 24.1709 23.1897 23.6014 23.5171 23.199C23.8445 22.7967 24.3067 22.5955 24.9037 22.5955C26.1211 22.5955 26.7298 23.3452 26.7298 24.8447C26.732 26.431 26.1298 27.2239 24.9233 27.2234V27.2194Z" fill="white"/>
<path d="M46.5657 10.9488H46.5338V15.5727H44.0144V3.85527H46.5338V5.06235H46.5657C47.1878 4.12727 48.0609 3.65973 49.185 3.65973C50.2425 3.65973 51.061 4.01622 51.6405 4.72919C52.22 5.44217 52.5084 6.41293 52.5057 7.64146C52.5057 8.97889 52.1696 10.0518 51.4973 10.8603C50.825 11.6688 49.9309 12.0738 48.815 12.0754C47.8306 12.0765 47.0809 11.701 46.5657 10.9488ZM46.4937 7.65675V8.30052C46.4937 8.85416 46.6427 9.30615 46.9406 9.65647C47.0817 9.82655 47.2608 9.96237 47.4639 10.0534C47.667 10.1444 47.8888 10.1881 48.1119 10.1811C48.6865 10.1811 49.1318 9.96306 49.4477 9.52691C49.7637 9.09075 49.9216 8.4738 49.9216 7.67606C49.9216 6.26459 49.3637 5.55912 48.2478 5.55966C48.0063 5.55392 47.7667 5.6029 47.5475 5.70281C47.3284 5.80273 47.1356 5.95089 46.984 6.13584C46.6577 6.51781 46.4942 7.02478 46.4937 7.65675Z" fill="white"/>
<path d="M56.6556 11.8815H54.1387V-7.62939e-05H56.6556V11.8815Z" fill="white"/>
<path d="M66.535 11.8815H64.0222V10.6583H63.9821C63.3611 11.6047 62.5295 12.0776 61.4872 12.0771C59.5959 12.0771 58.65 10.9505 58.6494 8.69725V3.85528H61.1606V8.47998C61.1606 9.61409 61.6176 10.1809 62.5317 10.1803C62.7364 10.1882 62.9402 10.1504 63.1279 10.0697C63.3156 9.98902 63.4823 9.86754 63.6154 9.71441C63.8882 9.40272 64.0246 8.98078 64.0246 8.44859V3.85528H66.535V11.8815Z" fill="white"/>
<path d="M68.1213 11.6698V9.66288C68.5091 9.89722 68.9259 10.0817 69.3614 10.2117C69.7396 10.3269 70.1327 10.3879 70.5286 10.3928C70.9755 10.3928 71.3277 10.3327 71.5853 10.2125C71.8429 10.0923 71.9716 9.9094 71.9716 9.66369C71.9733 9.58976 71.9585 9.51637 71.9282 9.44868C71.8979 9.38098 71.853 9.3206 71.7965 9.27179C71.6623 9.15722 71.5103 9.06458 71.3463 8.99739C71.1501 8.91476 70.9489 8.84408 70.7439 8.78575C70.5261 8.72378 70.3166 8.65297 70.1144 8.57491C69.8199 8.46721 69.5345 8.33698 69.2607 8.18543C69.0283 8.05846 68.8182 7.89542 68.6386 7.7026C68.4703 7.5178 68.3405 7.30237 68.2564 7.06849C68.1631 6.79312 68.1185 6.50406 68.1246 6.21388C68.1134 5.80764 68.2168 5.40629 68.4234 5.05429C68.6219 4.73117 68.895 4.45853 69.2206 4.25842C69.5718 4.04452 69.9573 3.89079 70.3608 3.80376C70.7988 3.70608 71.2467 3.65749 71.6958 3.65891C72.064 3.65886 72.4317 3.68576 72.7959 3.73938C73.1677 3.79516 73.5353 3.87582 73.896 3.9808V5.8936C73.5758 5.71009 73.2312 5.57141 72.872 5.48159C72.5218 5.39231 72.1616 5.34636 71.7998 5.34479C71.6432 5.34419 71.487 5.35847 71.3332 5.38744C71.1994 5.41247 71.0695 5.45467 70.9469 5.51297C70.8429 5.56162 70.7525 5.63423 70.6833 5.72461C70.6203 5.81021 70.587 5.91348 70.5883 6.01914C70.5855 6.1578 70.6367 6.29229 70.7316 6.39494C70.8381 6.50754 70.9653 6.59929 71.1065 6.66532C71.2723 6.74603 71.4441 6.81409 71.6205 6.86892C71.8088 6.92954 71.9959 6.99097 72.182 7.0532C72.4934 7.15845 72.7972 7.28427 73.0914 7.4298C73.3465 7.55452 73.5815 7.71559 73.7888 7.9078C73.9818 8.08917 74.1338 8.30853 74.2348 8.55157C74.36 8.89243 74.4105 9.25541 74.3831 9.61678C74.3557 9.97815 74.2511 10.3298 74.0761 10.6487C73.8668 10.9839 73.5799 11.2657 73.2387 11.4711C72.8672 11.6918 72.4599 11.8483 72.0347 11.9338C71.5698 12.0314 71.0956 12.08 70.6203 12.0786C69.7694 12.0864 68.9238 11.9481 68.1213 11.6698Z" fill="white"/>
<path d="M41.7127 17.4816H37.4655V21.6572H41.7127V17.4816Z" fill="white"/>
<path d="M31.5067 21.7368H35.754V17.5612H31.5067V21.7368Z" fill="white"/>
<path d="M31.5067 27.868H35.754V23.6923H31.5067V27.868Z" fill="white"/>
<path d="M31.5067 33.9999H35.754V29.8242H31.5067V33.9999Z" fill="white"/>
<path d="M31.5067 15.6049H35.754V11.4293H31.5067V15.6049Z" fill="white"/>
<path d="M47.9359 17.4816H43.6886V21.6572H47.9359V17.4816Z" fill="white"/>
<path d="M41.6997 15.5261V11.3504H37.4524V15.5261H41.6997Z" fill="white"/>
<path d="M41.6988 27.7883V23.6126H37.4516V27.7883H41.6988Z" fill="white"/>
</svg>
