<svg width="25" height="25" viewBox="0 0 25 25" fill="none" xmlns="http://www.w3.org/2000/svg">
<mask id="mask0_414_277" style="mask-type:alpha" maskUnits="userSpaceOnUse" x="0" y="0" width="25" height="25">
<circle cx="12.657" cy="12.7241" r="12" fill="#D9D9D9"/>
</mask>
<g mask="url(#mask0_414_277)">
<g clip-path="url(#clip0_414_277)">
<path d="M28.386 0.603394H-3.07199C-4.60243 0.603394 -5.84302 1.84398 -5.84302 3.37442V22.0738C-5.84302 23.6042 -4.60243 24.8448 -3.07199 24.8448H28.386C29.9163 24.8448 31.157 23.6042 31.157 22.0738V3.37442C31.157 1.84398 29.9164 0.603394 28.386 0.603394Z" fill="#41479B"/>
<path d="M31.1186 2.9164C30.9002 1.60413 29.7602 0.603394 28.386 0.603394H27.665L15.8466 8.34644V0.603466H9.46732V8.34651L-2.351 0.603466H-3.07199C-4.44627 0.603466 -5.58626 1.60413 -5.80464 2.91647L4.2965 9.53456H-5.84302V15.9139H4.2965L-5.80464 22.5318C-5.58626 23.8441 -4.44627 24.8448 -3.07199 24.8448H-2.351L9.46732 17.1018V24.8448H15.8466V17.1018L27.665 24.8448H28.386C29.7602 24.8448 30.9002 23.8442 31.1186 22.5318L21.0175 15.9137H31.157V9.53442H21.0175L31.1186 2.9164Z" fill="#F5F5F5"/>
<path d="M14.5708 0.603394H10.7432V10.8103H-5.84302V14.6379H10.7432V24.8448H14.5708V14.6379H31.157V10.8103H14.5708V0.603394Z" fill="#FF4B55"/>
<path d="M-4.05141 24.6661L9.43213 15.9137H7.0887L-5.17651 23.8753C-4.87639 24.2256 -4.49071 24.5001 -4.05141 24.6661Z" fill="#FF4B55"/>
<path d="M19.1889 15.9137H16.8455L29.905 24.3908C30.2705 24.1508 30.5754 23.8266 30.7929 23.4459L19.1889 15.9137Z" fill="#FF4B55"/>
<path d="M-5.55029 2.13534L5.84817 9.5344H8.1916L-4.72459 1.15015C-5.07139 1.40828 -5.35518 1.74576 -5.55029 2.13534Z" fill="#FF4B55"/>
<path d="M18.1901 9.53444L30.4778 1.55812C30.1744 1.209 29.7856 0.93613 29.3433 0.773315L15.8467 9.53444H18.1901Z" fill="#FF4B55"/>
</g>
</g>
<defs>
<clipPath id="clip0_414_277">
<rect width="37" height="37" fill="white" transform="i18next.t(-5.84302 -5.77588)"/>
</clipPath>
</defs>
</svg>
