<svg width="25" height="17" viewBox="0 0 25 17" fill="none" xmlns="http://www.w3.org/2000/svg">
<path d="M22.7565 0.676727H2.35138C1.35866 0.676727 0.553955 1.48143 0.553955 2.47415V14.6035C0.553955 15.5961 1.35866 16.4009 2.35138 16.4009H22.7565C23.7492 16.4009 24.554 15.5962 24.554 14.6035V2.47415C24.554 1.48143 23.7493 0.676727 22.7565 0.676727Z" fill="#41479B"/>
<path d="M24.5291 2.17699C24.3874 1.32579 23.648 0.676666 22.7565 0.676666H22.2889L14.6229 5.69918V0.676713H10.485V5.69923L2.81905 0.676713H2.35138C1.45996 0.676713 0.720502 1.32579 0.578846 2.17704L7.13094 6.46986H0.553955V10.6078H7.13094L0.578846 14.9005C0.720502 15.7517 1.45996 16.4008 2.35138 16.4008H2.81905L10.485 11.3783V16.4008H14.6229V11.3783L22.2889 16.4008H22.7565C23.648 16.4008 24.3874 15.7518 24.5291 14.9005L17.977 10.6077H24.554V6.46976H17.977L24.5291 2.17699Z" fill="#F5F5F5"/>
<path d="M13.7953 0.676727H11.3126V7.2974H0.553955V9.78018H11.3126V16.4009H13.7953V9.78018H24.554V7.2974H13.7953V0.676727Z" fill="#FF4B55"/>
<path d="M1.71613 16.285L10.4622 10.6078H8.94214L0.986328 15.7721C1.181 15.9993 1.43117 16.1773 1.71613 16.285Z" fill="#FF4B55"/>
<path d="M16.7908 10.6078H15.2708L23.7418 16.1064C23.9789 15.9508 24.1767 15.7405 24.3178 15.4935L16.7908 10.6078Z" fill="#FF4B55"/>
<path d="M0.743652 1.67042L8.13725 6.46981H9.65731L1.27925 1.03137C1.05429 1.19881 0.870215 1.41772 0.743652 1.67042Z" fill="#FF4B55"/>
<path d="M16.1429 6.46982L24.1133 1.29599C23.9164 1.06954 23.6643 0.892536 23.3774 0.786926L14.6228 6.46982H16.1429Z" fill="#FF4B55"/>
</svg>
