<svg width="21" height="20" viewBox="0 0 21 20" fill="none" xmlns="http://www.w3.org/2000/svg">
<path fill-rule="evenodd" clip-rule="evenodd" d="M8.02814 0.636147C8.34756 0.547724 8.68511 0.696242 8.83574 0.991482C9.18276 1.6717 9.88872 2.13504 10.7017 2.13504C11.5146 2.13504 12.2206 1.6717 12.5676 0.991482C12.7182 0.696242 13.0558 0.547724 13.3752 0.636147C14.9421 1.06989 16.3537 1.87495 17.5095 2.94969C17.7352 3.15957 17.7965 3.49269 17.6602 3.76914C17.5232 4.04699 17.4458 4.36007 17.4458 4.69318C17.4458 5.84912 18.3829 6.7862 19.5389 6.7862L19.5681 6.78599C19.8765 6.78159 20.1512 6.98024 20.2436 7.27453C20.5414 8.22246 20.7017 9.23046 20.7017 10.2746C20.7017 10.9637 20.6318 11.6373 20.4987 12.2883C20.4271 12.6384 20.1025 12.8778 19.7469 12.8429C19.6787 12.8362 19.6094 12.8327 19.5389 12.8327C18.3829 12.8327 17.4458 13.7698 17.4458 14.9257C17.4458 15.4403 17.6306 15.9098 17.9382 16.2744C18.1686 16.5475 18.1555 16.9506 17.9077 17.2081C16.7274 18.4345 15.2361 19.3609 13.5594 19.8601C13.1954 19.9685 12.8115 19.7657 12.6958 19.4038C12.4258 18.5592 11.6341 17.949 10.7017 17.949C9.76923 17.949 8.97752 18.5592 8.70751 19.4038C8.59184 19.7657 8.20796 19.9685 7.84388 19.8601C6.1672 19.3609 4.67589 18.4345 3.49564 17.2081C3.24785 16.9506 3.23467 16.5475 3.46512 16.2744C3.77272 15.9098 3.95747 15.4403 3.95747 14.9257C3.95747 13.7698 3.0204 12.8327 1.86445 12.8327C1.79397 12.8327 1.72457 12.8362 1.65639 12.8429C1.30078 12.8778 0.976253 12.6384 0.904646 12.2883C0.771474 11.6373 0.70166 10.9637 0.70166 10.2746C0.70166 9.23046 0.861915 8.22246 1.15967 7.27452C1.25211 6.98024 1.52682 6.78159 1.83524 6.78599L1.86445 6.7862C3.0204 6.7862 3.95747 5.84912 3.95747 4.69318C3.95747 4.36007 3.88016 4.04699 3.74317 3.76914C3.60687 3.49269 3.66812 3.15957 3.89384 2.94969C5.04967 1.87495 6.46123 1.06989 8.02814 0.636147ZM6.70166 10.25C6.70166 8.04087 8.49252 6.25002 10.7017 6.25002C12.9108 6.25002 14.7017 8.04087 14.7017 10.25C14.7017 12.4592 12.9108 14.25 10.7017 14.25C8.49252 14.25 6.70166 12.4592 6.70166 10.25ZM10.7017 7.66178C9.27221 7.66178 8.11342 8.82057 8.11342 10.25C8.11342 11.6795 9.27221 12.8383 10.7017 12.8383C12.1311 12.8383 13.2899 11.6795 13.2899 10.25C13.2899 8.82057 12.1311 7.66178 10.7017 7.66178Z" fill="white"/>
</svg>
