<svg width="24" height="17" viewBox="0 0 24 17" fill="none" xmlns="http://www.w3.org/2000/svg">
<path d="M22.2026 0.676666H1.79742C0.804703 0.676666 0 1.48137 0 2.47409V14.6035C0 15.5961 0.804703 16.4009 1.79742 16.4009H22.2026C23.1952 16.4009 24 15.5962 24 14.6035V2.47409C24 1.48137 23.1953 0.676666 22.2026 0.676666Z" fill="#F5F5F5"/>
<path d="M14.2974 5.09494C12.396 3.82734 9.82785 4.34559 8.5611 6.24366C7.92571 7.19105 8.18399 8.47838 9.13462 9.11217C10.0845 9.74597 11.3677 9.48858 12.0015 8.53786C12.6353 7.58719 13.9194 7.33298 14.8693 7.96345C15.8207 8.59725 16.0766 9.88458 15.4419 10.832C16.7095 8.93077 16.1971 6.36258 14.2974 5.09494Z" fill="#FF4B55"/>
<path d="M8.56104 6.24368C7.92565 7.19108 8.18393 8.47841 9.13455 9.11221C10.0845 9.746 11.3677 9.48861 12.0015 8.53789C12.6353 7.58722 13.9193 7.33301 14.8692 7.96348C15.8207 8.59728 16.0766 9.88461 15.4419 10.832C14.176 12.7366 11.6087 13.2484 9.70727 11.9808C7.80762 10.7133 7.29349 8.14512 8.56104 6.24368Z" fill="#41479B"/>
<path d="M16.4025 3.53203L17.1541 4.66181C17.2173 4.75673 17.1917 4.88489 17.097 4.94831L16.9064 5.07595C16.8113 5.13961 16.6826 5.11402 16.6191 5.01877L15.8665 3.88927C15.8032 3.79425 15.8289 3.66586 15.9239 3.60244L16.1154 3.47456C16.2105 3.41105 16.3391 3.43683 16.4025 3.53203Z" fill="#464655"/>
<path d="M17.5622 5.27395L18.3163 6.40303C18.3799 6.49837 18.3539 6.62737 18.2583 6.69056L18.0668 6.81708C17.9719 6.87989 17.844 6.85406 17.7808 6.75942L17.0271 5.63152C16.9636 5.53655 16.9891 5.40806 17.0841 5.34455L17.2751 5.21686C17.3701 5.15335 17.4987 5.17889 17.5622 5.27395Z" fill="#464655"/>
<path d="M17.2073 2.99494L19.1212 5.86712C19.1845 5.96218 19.1588 6.09062 19.0637 6.15399L18.8715 6.28215C18.7764 6.34552 18.6479 6.31984 18.5845 6.22477L16.67 3.35278C16.6066 3.25767 16.6324 3.12914 16.7275 3.06577L16.9204 2.93738C17.0155 2.87423 17.1439 2.89988 17.2073 2.99494Z" fill="#464655"/>
<path d="M18.0097 2.45868L18.763 3.59067C18.8265 3.68602 18.8004 3.81473 18.7049 3.87788L18.5133 4.00444C18.4182 4.06725 18.2903 4.04142 18.2271 3.94659L17.4733 2.81611C17.4098 2.72104 17.4356 2.59256 17.5306 2.52914L17.7228 2.40107C17.8178 2.3377 17.9464 2.36343 18.0097 2.45868Z" fill="#464655"/>
<path d="M19.1702 4.20432L19.9223 5.33396C19.9856 5.42892 19.96 5.55717 19.8651 5.6206L19.6741 5.74828C19.579 5.81185 19.4503 5.78621 19.3869 5.69096L18.6348 4.56132C18.5716 4.46635 18.5972 4.3381 18.692 4.27467L18.883 4.14699C18.9782 4.08338 19.1068 4.10897 19.1702 4.20432Z" fill="#464655"/>
<path d="M6.22137 10.3192L8.135 13.1883C8.19837 13.2833 8.17278 13.4118 8.07772 13.4752L7.88609 13.6031C7.79103 13.6666 7.66254 13.641 7.59908 13.5459L5.68545 10.6768C5.62203 10.5818 5.64767 10.4533 5.74273 10.3899L5.9344 10.2619C6.02942 10.1985 6.15795 10.2241 6.22137 10.3192Z" fill="#464655"/>
<path d="M5.41796 10.8558L6.16927 11.9827C6.2326 12.0777 6.20705 12.2059 6.11223 12.2694L5.92163 12.397C5.82662 12.4606 5.69799 12.4351 5.63448 12.34L4.88228 11.2133C4.81881 11.1183 4.8444 10.9898 4.93946 10.9264L5.131 10.7985C5.22601 10.7351 5.35454 10.7607 5.41796 10.8558Z" fill="#464655"/>
<path d="M6.57887 12.5984L7.33102 13.7281C7.3943 13.8231 7.36866 13.9514 7.27374 14.0148L7.08259 14.1426C6.98748 14.2061 6.8589 14.1805 6.79543 14.0853L6.04281 12.9558C5.97948 12.8608 6.00512 12.7324 6.10009 12.669L6.29171 12.541C6.38687 12.4774 6.51545 12.5031 6.57887 12.5984Z" fill="#464655"/>
<path d="M4.61448 11.3923L6.52689 14.2615C6.59021 14.3565 6.56457 14.4848 6.46975 14.5483L6.27864 14.6761C6.18357 14.7396 6.055 14.714 5.99153 14.6189L4.078 11.7501C4.01458 11.655 4.04031 11.5265 4.13537 11.4631L4.32765 11.3349C4.42262 11.2716 4.55111 11.2972 4.61448 11.3923Z" fill="#464655"/>
<path d="M5.6856 6.4032L7.59895 3.53178C7.66237 3.43663 7.7909 3.41094 7.88601 3.47441L8.07759 3.60233C8.1726 3.66575 8.1982 3.79419 8.13487 3.8892L6.22078 6.75903C6.15749 6.85386 6.02948 6.87964 5.93446 6.81673L5.74364 6.69041C5.6481 6.62722 5.62214 6.49845 5.6856 6.4032Z" fill="#464655"/>
<path d="M4.88192 5.8673L6.7956 2.99532C6.85902 2.90016 6.98764 2.87448 7.08275 2.93804L7.27386 3.06582C7.36874 3.12924 7.39433 3.25754 7.33105 3.35251L5.41789 6.22463C5.35447 6.31979 5.22593 6.34552 5.13082 6.28201L4.9392 6.15409C4.84423 6.09071 4.81859 5.96232 4.88192 5.8673Z" fill="#464655"/>
<path d="M4.07763 5.33369L5.99149 2.45884C6.05491 2.36363 6.18358 2.3379 6.27869 2.40146L6.4698 2.52924C6.56463 2.59267 6.59027 2.72082 6.52708 2.81584L4.61439 5.69111C4.55106 5.78627 4.42249 5.81209 4.32738 5.74867L4.13519 5.62052C4.04008 5.55714 4.01439 5.42875 4.07763 5.33369Z" fill="#464655"/>
<path d="M15.8669 13.1882L16.6191 12.0616C16.6826 11.9665 16.8113 11.9409 16.9063 12.0046L17.0969 12.1321C17.1917 12.1956 17.2172 12.3239 17.1539 12.4188L16.4026 13.5457C16.3391 13.6408 16.2106 13.6665 16.1155 13.603L15.924 13.4752C15.829 13.4117 15.8034 13.2833 15.8669 13.1882Z" fill="#464655"/>
<path d="M17.0271 11.4516L17.7805 10.3194C17.8438 10.2243 17.9724 10.1985 18.0675 10.2619L18.2595 10.3899C18.3546 10.4533 18.3803 10.5819 18.3169 10.6769L17.5618 11.8074C17.4985 11.9022 17.3705 11.9279 17.2755 11.8649L17.0851 11.7387C16.9897 11.6754 16.9637 11.5469 17.0271 11.4516Z" fill="#464655"/>
<path d="M16.67 13.7278L17.4227 12.5982C17.486 12.503 17.6145 12.4773 17.7096 12.5407L17.902 12.669C17.997 12.7324 18.0227 12.8608 17.9594 12.9559L17.2072 14.0856C17.1439 14.1807 17.0155 14.2064 16.9204 14.1431L16.7275 14.0147C16.6324 13.9514 16.6066 13.8229 16.67 13.7278Z" fill="#464655"/>
<path d="M17.8313 11.9824L18.5844 10.8554C18.6479 10.7605 18.7762 10.7349 18.8712 10.7982L19.0635 10.9264C19.1587 10.9898 19.1843 11.1184 19.1207 11.2135L18.3676 12.3405C18.3042 12.4354 18.1758 12.461 18.0809 12.3977L17.8885 12.2695C17.7934 12.2061 17.7677 12.0775 17.8313 11.9824Z" fill="#464655"/>
<path d="M17.4736 14.2613L18.2272 13.1337C18.2904 13.0391 18.4183 13.0133 18.5132 13.076L18.7048 13.2026C18.8004 13.2658 18.8264 13.3947 18.7629 13.49L18.0099 14.6191C17.9465 14.7142 17.818 14.7398 17.723 14.6765L17.5309 14.5484C17.4357 14.485 17.4101 14.3564 17.4736 14.2613Z" fill="#464655"/>
<path d="M18.6353 12.5217L19.3869 11.3927C19.4504 11.2975 19.579 11.2718 19.6741 11.3354L19.865 11.463C19.9599 11.5265 19.9855 11.6548 19.9221 11.7498L19.1698 12.8773C19.1066 12.9722 18.9784 12.9979 18.8834 12.9349L18.6931 12.8088C18.5978 12.7456 18.5719 12.6169 18.6353 12.5217Z" fill="#464655"/>
</svg>
