<svg width="25" height="25" viewBox="0 0 25 25" fill="none" xmlns="http://www.w3.org/2000/svg">
<mask id="mask0_414_289" style="mask-type:alpha" maskUnits="userSpaceOnUse" x="0" y="0" width="25" height="25">
<circle cx="12.157" cy="12.7241" r="12" fill="#D9D9D9"/>
</mask>
<g mask="url(#mask0_414_289)">
<circle cx="12.157" cy="12.7241" r="12" fill="#F5F5F5"/>
<path d="M14.5025 9.20758C12.5609 7.91323 9.9386 8.44242 8.64511 10.3805C7.99631 11.3479 8.26005 12.6624 9.23073 13.3096C10.2007 13.9568 11.511 13.694 12.1582 12.7232C12.8053 11.7524 14.1165 11.4929 15.0864 12.1366C16.058 12.7838 16.3193 14.0983 15.6712 15.0657C16.9655 13.1244 16.4423 10.502 14.5025 9.20758Z" fill="#FF4B55"/>
<path d="M8.64529 10.3806C7.99649 11.348 8.26022 12.6625 9.23091 13.3097C10.2009 13.9569 11.5112 13.694 12.1583 12.7232C12.8055 11.7525 14.1167 11.4929 15.0866 12.1367C16.0581 12.7839 16.3194 14.0984 15.6714 15.0658C14.3787 17.0106 11.7572 17.5331 9.81572 16.2388C7.87597 14.9446 7.35099 12.3222 8.64529 10.3806Z" fill="#41479B"/>
<path d="M16.6523 7.61171L17.4198 8.76533C17.4843 8.86226 17.4582 8.99312 17.3615 9.05788L17.1669 9.18822C17.0698 9.25322 16.9383 9.22708 16.8735 9.12982L16.105 7.97648C16.0404 7.87946 16.0666 7.74836 16.1636 7.6836L16.3592 7.55303C16.4563 7.48817 16.5876 7.5145 16.6523 7.61171Z" fill="#464655"/>
<path d="M17.8364 9.39034L18.6064 10.5432C18.6714 10.6406 18.6449 10.7723 18.5472 10.8368L18.3517 10.966C18.2547 11.0302 18.1242 11.0038 18.0596 10.9072L17.29 9.75545C17.2252 9.65847 17.2513 9.52728 17.3483 9.46242L17.5433 9.33204C17.6403 9.26718 17.7716 9.29327 17.8364 9.39034Z" fill="#464655"/>
<path d="M17.4743 7.06323L19.4285 9.99603C19.4932 10.0931 19.4669 10.2242 19.3699 10.289L19.1735 10.4198C19.0765 10.4845 18.9453 10.4583 18.8806 10.3612L16.9256 7.42863C16.8609 7.33151 16.8872 7.20026 16.9844 7.13555L17.1813 7.00445C17.2784 6.93998 17.4095 6.96616 17.4743 7.06323Z" fill="#464655"/>
<path d="M18.2935 6.51569L19.0627 7.67157C19.1275 7.76892 19.1009 7.90036 19.0033 7.96483L18.8077 8.09407C18.7106 8.1582 18.58 8.13183 18.5155 8.035L17.7457 6.88065C17.681 6.78358 17.7072 6.65239 17.8043 6.58763L18.0005 6.45686C18.0976 6.39215 18.2288 6.41843 18.2935 6.51569Z" fill="#464655"/>
<path d="M19.4784 8.29821L20.2464 9.4517C20.311 9.54867 20.2848 9.67963 20.188 9.74439L19.9929 9.87477C19.8958 9.93967 19.7644 9.91349 19.6997 9.81623L18.9317 8.66275C18.8671 8.56577 18.8932 8.43482 18.9901 8.37006L19.1851 8.23967C19.2823 8.17472 19.4136 8.20086 19.4784 8.29821Z" fill="#464655"/>
<path d="M6.25637 14.5421L8.21038 17.4717C8.2751 17.5687 8.24896 17.6999 8.15189 17.7646L7.95622 17.8953C7.85915 17.9601 7.72796 17.9339 7.66315 17.8368L5.70913 14.9072C5.64437 14.8102 5.67056 14.679 5.76762 14.6143L5.96334 14.4836C6.06036 14.4188 6.19161 14.445 6.25637 14.5421Z" fill="#464655"/>
<path d="M5.43611 15.0901L6.20328 16.2408C6.26794 16.3377 6.24185 16.4686 6.14503 16.5335L5.95041 16.6638C5.85339 16.7287 5.72205 16.7026 5.65719 16.6055L4.88912 15.4551C4.82431 15.3581 4.85044 15.2269 4.94751 15.1621L5.14308 15.0315C5.2401 14.9668 5.37135 14.9929 5.43611 15.0901Z" fill="#464655"/>
<path d="M6.62143 16.8693L7.38946 18.023C7.45408 18.1199 7.4279 18.2509 7.33097 18.3156L7.13578 18.4462C7.03867 18.5111 6.90737 18.4849 6.84257 18.3877L6.07406 17.2343C6.00939 17.1373 6.03557 17.0062 6.13255 16.9415L6.32822 16.8108C6.42538 16.7459 6.55667 16.7721 6.62143 16.8693Z" fill="#464655"/>
<path d="M4.61555 15.6379L6.56832 18.5677C6.63299 18.6646 6.6068 18.7957 6.50997 18.8605L6.31483 18.991C6.21776 19.0559 6.08647 19.0297 6.02166 18.9326L4.06775 16.0032C4.00299 15.9061 4.02926 15.7749 4.12633 15.7102L4.32267 15.5793C4.41965 15.5146 4.55084 15.5408 4.61555 15.6379Z" fill="#464655"/>
<path d="M5.70929 10.5435L7.66301 7.61149C7.72777 7.51432 7.85902 7.48809 7.95613 7.5529L8.15176 7.68352C8.24878 7.74828 8.27491 7.87943 8.21025 7.97645L6.25575 10.9069C6.19114 11.0037 6.06042 11.03 5.9634 10.9658L5.76854 10.8368C5.67099 10.7723 5.64448 10.6408 5.70929 10.5435Z" fill="#464655"/>
<path d="M4.88875 9.99621L6.84282 7.06361C6.90758 6.96645 7.03892 6.94022 7.13604 7.00512L7.33119 7.1356C7.42806 7.20036 7.4542 7.33136 7.38958 7.42834L5.43604 10.3611C5.37128 10.4582 5.24003 10.4845 5.14292 10.4197L4.94725 10.289C4.85027 10.2243 4.82409 10.0932 4.88875 9.99621Z" fill="#464655"/>
<path d="M4.06737 9.45137L6.02163 6.51584C6.08639 6.41863 6.21778 6.39235 6.31489 6.45725L6.51004 6.58773C6.60687 6.65249 6.63305 6.78335 6.56853 6.88037L4.61547 9.81633C4.5508 9.9135 4.41951 9.93987 4.32239 9.87511L4.12615 9.74425C4.02903 9.67954 4.0028 9.54844 4.06737 9.45137Z" fill="#464655"/>
<path d="M16.1054 17.4717L16.8735 16.3213C16.9384 16.2242 17.0697 16.1981 17.1667 16.263L17.3614 16.3933C17.4582 16.4581 17.4842 16.5891 17.4196 16.686L16.6524 17.8367C16.5876 17.9338 16.4564 17.96 16.3593 17.8952L16.1637 17.7647C16.0668 17.6999 16.0406 17.5687 16.1054 17.4717Z" fill="#464655"/>
<path d="M17.29 15.6985L18.0594 14.5424C18.124 14.4452 18.2553 14.4189 18.3524 14.4836L18.5485 14.6143C18.6456 14.6791 18.6718 14.8103 18.607 14.9074L17.8361 16.0617C17.7714 16.1585 17.6407 16.1848 17.5437 16.1204L17.3492 15.9916C17.2518 15.927 17.2253 15.7957 17.29 15.6985Z" fill="#464655"/>
<path d="M16.9256 18.0226L17.6942 16.8692C17.7589 16.7721 17.8901 16.7458 17.9872 16.8105L18.1836 16.9415C18.2807 17.0063 18.3069 17.1373 18.2423 17.2344L17.4742 18.388C17.4095 18.4851 17.2784 18.5114 17.1813 18.4467L16.9843 18.3156C16.8872 18.251 16.8609 18.1197 16.9256 18.0226Z" fill="#464655"/>
<path d="M18.1113 16.2404L18.8803 15.0896C18.9451 14.9927 19.0762 14.9666 19.1732 15.0312L19.3695 15.1621C19.4667 15.2268 19.4929 15.3581 19.428 15.4553L18.659 16.6061C18.5942 16.703 18.4631 16.7291 18.3662 16.6644L18.1698 16.5336C18.0726 16.4688 18.0464 16.3375 18.1113 16.2404Z" fill="#464655"/>
<path d="M17.7461 18.5675L18.5155 17.416C18.5802 17.3194 18.7107 17.2931 18.8077 17.3572L19.0032 17.4864C19.1009 17.5509 19.1274 17.6825 19.0625 17.7799L18.2937 18.9328C18.229 19.0299 18.0978 19.0561 18.0007 18.9914L17.8045 18.8606C17.7074 18.7958 17.6812 18.6645 17.7461 18.5675Z" fill="#464655"/>
<path d="M18.9327 16.7911L19.7002 15.6383C19.7649 15.541 19.8963 15.5148 19.9934 15.5797L20.1883 15.71C20.2853 15.7748 20.3113 15.9059 20.2466 16.0029L19.4785 17.1542C19.4139 17.251 19.283 17.2773 19.186 17.213L18.9917 17.0842C18.8944 17.0197 18.8679 16.8883 18.9327 16.7911Z" fill="#464655"/>
</g>
</svg>
