<svg width="24" height="25" viewBox="0 0 24 25" fill="none" xmlns="http://www.w3.org/2000/svg">
<mask id="mask0_414_313" style="mask-type:alpha" maskUnits="userSpaceOnUse" x="0" y="0" width="24" height="25">
<circle cx="12" cy="12.7241" r="12" fill="#D9D9D9"/>
</mask>
<g mask="url(#mask0_414_313)">
<path d="M22.209 0.724121H1.79566C0.806407 0.724121 0 1.95213 0 3.47456V22.0598C0 23.5822 0.806407 24.8102 1.79566 24.8102H22.2043C23.1983 24.8102 24 23.5751 24 22.0598V3.47456C24.0047 1.95213 23.1983 0.724121 22.209 0.724121Z" fill="#FF4B55"/>
<path d="M12.2673 6.38989L13.7927 10.9662L18.6146 11.005C18.8861 11.005 18.996 11.354 18.7762 11.5091L14.898 14.3726L16.3524 18.9682C16.4364 19.2268 16.1391 19.4401 15.9193 19.2785L12.0023 16.4797L8.07882 19.285C7.85906 19.4401 7.56819 19.2268 7.64576 18.9747L9.10009 14.379L5.22187 11.5156C5.0021 11.354 5.11845 11.0114 5.38346 11.0114L10.2054 10.9726L11.7308 6.39635C11.8213 6.13134 12.1833 6.13134 12.2673 6.38989Z" fill="#FFE15A"/>
</g>
</svg>
