<svg width="25" height="17" viewBox="0 0 25 17" fill="none" xmlns="http://www.w3.org/2000/svg">
<path d="M22.6553 0.6763H2.24195C1.2527 0.6763 0.446289 1.47802 0.446289 2.47196V14.6056C0.446289 15.5995 1.2527 16.4012 2.24195 16.4012H22.6506C23.6446 16.4012 24.4463 15.5948 24.4463 14.6056V2.47196C24.451 1.47802 23.6446 0.6763 22.6553 0.6763Z" fill="#FF4B55"/>
<path d="M12.6409 3.85037L13.7473 7.16977L17.2449 7.1979C17.4418 7.1979 17.5215 7.45107 17.3621 7.56359L14.5491 9.64056L15.6039 12.974C15.6649 13.1616 15.4492 13.3163 15.2898 13.1991L12.4486 11.169L9.60278 13.2038C9.44337 13.3163 9.23239 13.1616 9.28866 12.9787L10.3435 9.64525L7.5305 7.56828C7.37109 7.45107 7.45548 7.20259 7.64771 7.20259L11.1453 7.17446L12.2517 3.85506C12.3174 3.66283 12.5799 3.66283 12.6409 3.85037Z" fill="#FFE15A"/>
</svg>
